<svg xmlns="http://www.w3.org/2000/svg" width="1200" height="600" viewBox="0 0 1200 600">
  <defs>
    <linearGradient id="skyGradient" x1="0%" y1="0%" x2="0%" y2="100%">
      <stop offset="0%" style="stop-color:#0a1128;stop-opacity:1" />
      <stop offset="100%" style="stop-color:#1a237e;stop-opacity:1" />
    </linearGradient>
    <radialGradient id="screenGlow" cx="50%" cy="35%" r="50%" fx="50%" fy="35%">
      <stop offset="0%" style="stop-color:#ffffff;stop-opacity:0.7" />
      <stop offset="100%" style="stop-color:#ffffff;stop-opacity:0" />
    </radialGradient>
  </defs>
  
  <!-- Sky background -->
  <rect width="1200" height="600" fill="url(#skyGradient)" />
  
  <!-- Stars -->
  <g fill="#ffffff">
    <circle cx="120" cy="80" r="1.5" opacity="0.8" />
    <circle cx="340" cy="50" r="2" opacity="0.7" />
    <circle cx="650" cy="30" r="1" opacity="0.6" />
    <circle cx="750" cy="90" r="1.5" opacity="0.7" />
    <circle cx="900" cy="40" r="1" opacity="0.5" />
    <circle cx="1050" cy="70" r="2" opacity="0.7" />
    <circle cx="200" cy="120" r="1" opacity="0.6" />
    <circle cx="450" cy="100" r="1.5" opacity="0.5" />
    <circle cx="800" cy="130" r="1" opacity="0.7" />
    <circle cx="1100" cy="110" r="1.5" opacity="0.8" />
    <circle cx="300" cy="160" r="1" opacity="0.7" />
    <circle cx="550" cy="150" r="1.5" opacity="0.6" />
    <circle cx="950" cy="160" r="1" opacity="0.5" />
  </g>
  
  <!-- Ground silhouette -->
  <path d="M0,500 Q300,480 600,490 T1200,470 V600 H0 Z" fill="#111111" />
  
  <!-- People silhouettes -->
  <g fill="#000000">
    <ellipse cx="300" cy="520" rx="15" ry="8" />
    <ellipse cx="340" cy="525" rx="15" ry="8" />
    <ellipse cx="400" cy="518" rx="15" ry="8" />
    <ellipse cx="450" cy="523" rx="15" ry="8" />
    <ellipse cx="500" cy="520" rx="15" ry="8" />
    <ellipse cx="550" cy="525" rx="15" ry="8" />
    <ellipse cx="600" cy="518" rx="15" ry="8" />
    <ellipse cx="650" cy="523" rx="15" ry="8" />
    <ellipse cx="700" cy="520" rx="15" ry="8" />
    <ellipse cx="750" cy="525" rx="15" ry="8" />
    <ellipse cx="800" cy="518" rx="15" ry="8" />
    <ellipse cx="850" cy="523" rx="15" ry="8" />
    <ellipse cx="900" cy="520" rx="15" ry="8" />
  </g>
  
  <!-- Movie screen -->
  <rect x="450" y="300" width="300" height="180" fill="#ffffff" rx="2" ry="2" />
  <rect x="460" y="310" width="280" height="160" fill="#111111" rx="1" ry="1" />
  <rect x="470" y="320" width="260" height="140" fill="#ffffff" opacity="0.2" />
  
  <!-- Screen glow -->
  <ellipse cx="600" cy="390" rx="350" ry="200" fill="url(#screenGlow)" opacity="0.3" />
  
  <!-- Projector beam -->
  <polygon points="720,390 950,500 950,280" fill="#ffffff" opacity="0.1" />
  
  <!-- Projector -->
  <rect x="950" y="380" width="50" height="30" fill="#333333" rx="2" ry="2" />
  <rect x="980" y="390" width="20" height="10" fill="#222222" />
  
</svg> 