<svg xmlns="http://www.w3.org/2000/svg" width="1200" height="300" viewBox="0 0 1200 300">
  <defs>
    <linearGradient id="headerGradient" x1="0%" y1="0%" x2="100%" y2="100%">
      <stop offset="0%" style="stop-color:#1a237e;stop-opacity:1" />
      <stop offset="100%" style="stop-color:#3949ab;stop-opacity:1" />
    </linearGradient>
    <pattern id="pattern" width="20" height="20" patternUnits="userSpaceOnUse">
      <circle cx="10" cy="10" r="1" fill="white" opacity="0.1"/>
    </pattern>
  </defs>
  
  <!-- Background -->
  <rect width="1200" height="300" fill="url(#headerGradient)" />
  
  <!-- Pattern overlay -->
  <rect width="1200" height="300" fill="url(#pattern)" />
  
  <!-- Decorative elements -->
  <circle cx="100" cy="150" r="80" fill="white" opacity="0.03" />
  <circle cx="1100" cy="50" r="120" fill="white" opacity="0.02" />
  <circle cx="950" cy="250" r="70" fill="white" opacity="0.03" />
  <circle cx="300" cy="80" r="50" fill="white" opacity="0.02" />
  
  <!-- Movie film strip -->
  <g opacity="0.1">
    <rect x="200" y="20" width="800" height="40" fill="black" />
    <rect x="220" y="25" width="30" height="30" fill="white" />
    <rect x="270" y="25" width="30" height="30" fill="white" />
    <rect x="320" y="25" width="30" height="30" fill="white" />
    <rect x="370" y="25" width="30" height="30" fill="white" />
    <rect x="420" y="25" width="30" height="30" fill="white" />
    <rect x="470" y="25" width="30" height="30" fill="white" />
    <rect x="520" y="25" width="30" height="30" fill="white" />
    <rect x="570" y="25" width="30" height="30" fill="white" />
    <rect x="620" y="25" width="30" height="30" fill="white" />
    <rect x="670" y="25" width="30" height="30" fill="white" />
    <rect x="720" y="25" width="30" height="30" fill="white" />
    <rect x="770" y="25" width="30" height="30" fill="white" />
    <rect x="820" y="25" width="30" height="30" fill="white" />
    <rect x="870" y="25" width="30" height="30" fill="white" />
    <rect x="920" y="25" width="30" height="30" fill="white" />
    <rect x="970" y="25" width="30" height="30" fill="white" />
    
    <rect x="200" y="240" width="800" height="40" fill="black" />
    <rect x="220" y="245" width="30" height="30" fill="white" />
    <rect x="270" y="245" width="30" height="30" fill="white" />
    <rect x="320" y="245" width="30" height="30" fill="white" />
    <rect x="370" y="245" width="30" height="30" fill="white" />
    <rect x="420" y="245" width="30" height="30" fill="white" />
    <rect x="470" y="245" width="30" height="30" fill="white" />
    <rect x="520" y="245" width="30" height="30" fill="white" />
    <rect x="570" y="245" width="30" height="30" fill="white" />
    <rect x="620" y="245" width="30" height="30" fill="white" />
    <rect x="670" y="245" width="30" height="30" fill="white" />
    <rect x="720" y="245" width="30" height="30" fill="white" />
    <rect x="770" y="245" width="30" height="30" fill="white" />
    <rect x="820" y="245" width="30" height="30" fill="white" />
    <rect x="870" y="245" width="30" height="30" fill="white" />
    <rect x="920" y="245" width="30" height="30" fill="white" />
    <rect x="970" y="245" width="30" height="30" fill="white" />
  </g>
</svg> 