<?xml version="1.0" encoding="UTF-8"?>
<svg width="100" height="100" viewBox="0 0 100 100" xmlns="http://www.w3.org/2000/svg">
  <!-- Calendar base -->
  <rect x="15" y="20" width="70" height="65" rx="3" fill="#d1e3ff" />
  <rect x="15" y="20" width="70" height="15" rx="3" fill="#3a5a9a" />
  
  <!-- Calendar pages -->
  <rect x="20" y="40" width="60" height="40" fill="#ffffff" />
  
  <!-- Calendar rings -->
  <circle cx="30" cy="20" r="3" fill="#3a5a9a" />
  <circle cx="50" cy="20" r="3" fill="#3a5a9a" />
  <circle cx="70" cy="20" r="3" fill="#3a5a9a" />
  
  <!-- Calendar tabs -->
  <rect x="27" y="15" width="6" height="5" rx="1" fill="#3a5a9a" />
  <rect x="47" y="15" width="6" height="5" rx="1" fill="#3a5a9a" />
  <rect x="67" y="15" width="6" height="5" rx="1" fill="#3a5a9a" />
  
  <!-- Calendar grid -->
  <line x1="20" y1="50" x2="80" y2="50" stroke="#3a5a9a" stroke-width="1" opacity="0.5" />
  <line x1="20" y1="60" x2="80" y2="60" stroke="#3a5a9a" stroke-width="1" opacity="0.5" />
  <line x1="20" y1="70" x2="80" y2="70" stroke="#3a5a9a" stroke-width="1" opacity="0.5" />
  
  <line x1="30" y1="40" x2="30" y2="80" stroke="#3a5a9a" stroke-width="1" opacity="0.5" />
  <line x1="40" y1="40" x2="40" y2="80" stroke="#3a5a9a" stroke-width="1" opacity="0.5" />
  <line x1="50" y1="40" x2="50" y2="80" stroke="#3a5a9a" stroke-width="1" opacity="0.5" />
  <line x1="60" y1="40" x2="60" y2="80" stroke="#3a5a9a" stroke-width="1" opacity="0.5" />
  <line x1="70" y1="40" x2="70" y2="80" stroke="#3a5a9a" stroke-width="1" opacity="0.5" />
  
  <!-- Special date -->
  <rect x="50" y="50" width="10" height="10" fill="#fbeebe" />
  <circle cx="55" cy="55" r="3" fill="#3a5a9a" />
  
  <!-- Calendar month text -->
  <text x="42" y="31" font-family="Arial, sans-serif" font-size="10" font-weight="bold" fill="#ffffff">EVENT</text>
</svg> 