<?xml version="1.0" encoding="UTF-8"?>
<svg width="100" height="100" viewBox="0 0 100 100" xmlns="http://www.w3.org/2000/svg">
  <!-- Projector body -->
  <rect x="20" y="35" width="60" height="30" rx="2" fill="#3a5a9a" />
  
  <!-- Lens -->
  <circle cx="50" cy="50" r="10" fill="#d1e3ff" />
  <circle cx="50" cy="50" r="6" fill="#3a5a9a" />
  <circle cx="53" cy="47" r="2" fill="#ffffff" opacity="0.7" />
  
  <!-- Projection light -->
  <polygon points="80,40 100,25 100,75 80,60" fill="#fbeebe" opacity="0.6" />
  
  <!-- Buttons -->
  <circle cx="30" cy="42" r="3" fill="#d1e3ff" />
  <circle cx="30" cy="58" r="3" fill="#d1e3ff" />
  <circle cx="40" cy="42" r="3" fill="#d1e3ff" />
  <rect x="35" cy="58" width="20" height="3" rx="1.5" fill="#d1e3ff" />
  
  <!-- Cable -->
  <path d="M20,50 C10,50 10,30 5,30" stroke="#3a5a9a" stroke-width="2" fill="none" />
  
  <!-- Ventilation -->
  <rect x="55" y="40" width="15" height="2" rx="1" fill="#d1e3ff" />
  <rect x="55" y="45" width="15" height="2" rx="1" fill="#d1e3ff" />
  <rect x="55" y="50" width="15" height="2" rx="1" fill="#d1e3ff" />
  <rect x="55" y="55" width="15" height="2" rx="1" fill="#d1e3ff" />
</svg> 