<svg xmlns="http://www.w3.org/2000/svg" width="800" height="600" viewBox="0 0 800 600">
  <defs>
    <linearGradient id="skyGradient" x1="0%" y1="0%" x2="0%" y2="100%">
      <stop offset="0%" style="stop-color:#1a237e;stop-opacity:1" />
      <stop offset="100%" style="stop-color:#3949ab;stop-opacity:0.8" />
    </linearGradient>
    <linearGradient id="grassGradient" x1="0%" y1="0%" x2="0%" y2="100%">
      <stop offset="0%" style="stop-color:#2e7d32;stop-opacity:1" />
      <stop offset="100%" style="stop-color:#1b5e20;stop-opacity:1" />
    </linearGradient>
    <linearGradient id="treeGradient" x1="0%" y1="0%" x2="100%" y2="0%">
      <stop offset="0%" style="stop-color:#2e7d32;stop-opacity:1" />
      <stop offset="100%" style="stop-color:#1b5e20;stop-opacity:1" />
    </linearGradient>
    <radialGradient id="screenGlow" cx="50%" cy="35%" r="70%" fx="50%" fy="35%">
      <stop offset="0%" style="stop-color:#ffffff;stop-opacity:0.4" />
      <stop offset="100%" style="stop-color:#ffffff;stop-opacity:0" />
    </radialGradient>
  </defs>
  
  <!-- Sky background with dusk colors -->
  <rect width="800" height="600" fill="url(#skyGradient)" />
  
  <!-- Stars -->
  <g fill="#ffffff" opacity="0.8">
    <circle cx="50" cy="50" r="1" />
    <circle cx="150" cy="80" r="1.2" />
    <circle cx="250" cy="30" r="0.8" />
    <circle cx="350" cy="60" r="1" />
    <circle cx="450" cy="40" r="0.7" />
    <circle cx="550" cy="70" r="1.2" />
    <circle cx="650" cy="20" r="0.9" />
    <circle cx="750" cy="90" r="1" />
    <circle cx="100" cy="120" r="0.8" />
    <circle cx="200" cy="100" r="1.1" />
    <circle cx="300" cy="150" r="0.7" />
    <circle cx="400" cy="130" r="1" />
    <circle cx="500" cy="110" r="0.8" />
    <circle cx="600" cy="140" r="1.2" />
    <circle cx="700" cy="160" r="0.9" />
  </g>
  
  <!-- Moon -->
  <circle cx="700" cy="80" r="40" fill="#fffde7" />
  <circle cx="680" cy="70" r="12" fill="#fff9c4" opacity="0.5" />
  <circle cx="720" cy="90" r="8" fill="#fff9c4" opacity="0.5" />
  
  <!-- Park background -->
  <rect x="0" y="300" width="800" height="300" fill="url(#grassGradient)" />
  
  <!-- Trees -->
  <g>
    <!-- Tree 1 -->
    <rect x="50" y="250" width="15" height="100" fill="#5d4037" />
    <circle cx="57" cy="200" r="50" fill="url(#treeGradient)" />
    
    <!-- Tree 2 -->
    <rect x="700" y="270" width="15" height="80" fill="#5d4037" />
    <circle cx="707" cy="230" r="40" fill="url(#treeGradient)" />
    
    <!-- Tree 3 -->
    <rect x="150" y="280" width="10" height="70" fill="#5d4037" />
    <circle cx="155" cy="250" r="30" fill="url(#treeGradient)" />
    
    <!-- Tree 4 -->
    <rect x="620" y="290" width="10" height="60" fill="#5d4037" />
    <circle cx="625" cy="260" r="30" fill="url(#treeGradient)" />
  </g>
  
  <!-- Large screen structure -->
  <rect x="200" y="150" width="400" height="220" fill="#eeeeee" rx="2" ry="2" />
  <rect x="210" y="160" width="380" height="200" fill="#111111" rx="1" ry="1" />
  <rect x="220" y="170" width="360" height="180" fill="#ffffff" opacity="0.15" />
  
  <!-- Screen glow -->
  <ellipse cx="400" cy="260" rx="300" ry="180" fill="url(#screenGlow)" opacity="0.3" />
  
  <!-- Movie film symbol on screen -->
  <g fill="#ffffff" opacity="0.2">
    <rect x="360" y="230" width="80" height="60" rx="5" ry="5" />
    <circle cx="370" cy="240" r="5" />
    <circle cx="370" cy="280" r="5" />
    <circle cx="430" cy="240" r="5" />
    <circle cx="430" cy="280" r="5" />
  </g>
  
  <!-- Park benches (front row) -->
  <g fill="#795548">
    <rect x="250" y="400" width="80" height="10" rx="2" ry="2" />
    <rect x="250" y="410" width="10" height="20" />
    <rect x="320" y="410" width="10" height="20" />
    <rect x="350" y="400" width="80" height="10" rx="2" ry="2" />
    <rect x="350" y="410" width="10" height="20" />
    <rect x="420" y="410" width="10" height="20" />
    <rect x="450" y="400" width="80" height="10" rx="2" ry="2" />
    <rect x="450" y="410" width="10" height="20" />
    <rect x="520" y="410" width="10" height="20" />
  </g>
  
  <!-- Blanket areas (middle) -->
  <g>
    <rect x="270" y="450" width="70" height="50" fill="#e57373" rx="2" ry="2" />
    <rect x="360" y="440" width="80" height="60" fill="#81c784" rx="2" ry="2" />
    <rect x="460" y="450" width="70" height="50" fill="#64b5f6" rx="2" ry="2" />
    <rect x="230" y="510" width="60" height="40" fill="#9575cd" rx="2" ry="2" />
    <rect x="310" y="520" width="80" height="50" fill="#ffb74d" rx="2" ry="2" />
    <rect x="410" y="510" width="70" height="45" fill="#4db6ac" rx="2" ry="2" />
    <rect x="500" y="520" width="75" height="40" fill="#fff176" rx="2" ry="2" />
  </g>
  
  <!-- People (simplified silhouettes) -->
  <g fill="#111111">
    <!-- On benches -->
    <circle cx="265" cy="400" r="8" />
    <circle cx="285" cy="400" r="8" />
    <circle cx="305" cy="400" r="8" />
    <circle cx="365" cy="400" r="8" />
    <circle cx="385" cy="400" r="8" />
    <circle cx="405" cy="400" r="8" />
    <circle cx="465" cy="400" r="8" />
    <circle cx="485" cy="400" r="8" />
    <circle cx="505" cy="400" r="8" />
    
    <!-- On blankets -->
    <circle cx="290" cy="470" r="8" />
    <circle cx="310" cy="470" r="8" />
    <circle cx="290" cy="490" r="8" />
    <circle cx="310" cy="490" r="8" />
    
    <circle cx="380" cy="460" r="8" />
    <circle cx="400" cy="460" r="8" />
    <circle cx="420" cy="460" r="8" />
    <circle cx="380" cy="480" r="8" />
    <circle cx="400" cy="480" r="8" />
    <circle cx="420" cy="480" r="8" />
    
    <circle cx="480" cy="470" r="8" />
    <circle cx="500" cy="470" r="8" />
    <circle cx="480" cy="490" r="8" />
    <circle cx="500" cy="490" r="8" />
    
    <circle cx="250" cy="525" r="8" />
    <circle cx="270" cy="525" r="8" />
    
    <circle cx="330" cy="535" r="8" />
    <circle cx="350" cy="535" r="8" />
    <circle cx="370" cy="535" r="8" />
    <circle cx="330" cy="555" r="8" />
    <circle cx="350" cy="555" r="8" />
    <circle cx="370" cy="555" r="8" />
    
    <circle cx="430" cy="525" r="8" />
    <circle cx="450" cy="525" r="8" />
    <circle cx="430" cy="545" r="8" />
    
    <circle cx="520" cy="535" r="8" />
    <circle cx="540" cy="535" r="8" />
    <circle cx="560" cy="535" r="8" />
  </g>
  
  <!-- Food truck - simplified -->
  <rect x="610" y="430" width="120" height="60" rx="5" ry="5" fill="#e0e0e0" />
  <rect x="610" y="470" width="120" height="20" rx="2" ry="2" fill="#9e9e9e" />
  <rect x="620" y="440" width="40" height="20" rx="2" ry="2" fill="#ffecb3" />
  <rect x="670" y="450" width="50" height="10" fill="#424242" />
  <circle cx="630" cy="490" r="10" fill="#424242" />
  <circle cx="710" cy="490" r="10" fill="#424242" />
  
  <!-- Projector -->
  <rect x="580" y="360" width="50" height="25" fill="#424242" rx="3" ry="3" />
  <polygon points="580,372 400,260 400,310" fill="white" opacity="0.05" />
</svg> 