<svg xmlns="http://www.w3.org/2000/svg" width="800" height="600" viewBox="0 0 800 600">
  <defs>
    <linearGradient id="skyGradient" x1="0%" y1="0%" x2="0%" y2="100%">
      <stop offset="0%" style="stop-color:#0a1128;stop-opacity:1" />
      <stop offset="100%" style="stop-color:#1a237e;stop-opacity:1" />
    </linearGradient>
    <linearGradient id="groundGradient" x1="0%" y1="0%" x2="0%" y2="100%">
      <stop offset="0%" style="stop-color:#333333;stop-opacity:1" />
      <stop offset="100%" style="stop-color:#1c1c1c;stop-opacity:1" />
    </linearGradient>
    <linearGradient id="buildingGradient" x1="0%" y1="0%" x2="100%" y2="0%">
      <stop offset="0%" style="stop-color:#1c1c1c;stop-opacity:1" />
      <stop offset="50%" style="stop-color:#333333;stop-opacity:1" />
      <stop offset="100%" style="stop-color:#1c1c1c;stop-opacity:1" />
    </linearGradient>
    <radialGradient id="screenGlow" cx="50%" cy="35%" r="60%" fx="50%" fy="35%">
      <stop offset="0%" style="stop-color:#ffffff;stop-opacity:0.5" />
      <stop offset="100%" style="stop-color:#ffffff;stop-opacity:0" />
    </radialGradient>
  </defs>
  
  <!-- Sky background -->
  <rect width="800" height="600" fill="url(#skyGradient)" />
  
  <!-- City skyline background -->
  <g fill="url(#buildingGradient)">
    <rect x="50" y="250" width="80" height="150" />
    <rect x="130" y="200" width="60" height="200" />
    <rect x="190" y="300" width="40" height="100" />
    <rect x="230" y="220" width="70" height="180" />
    <rect x="300" y="280" width="50" height="120" />
    <rect x="350" y="240" width="90" height="160" />
    <rect x="440" y="320" width="30" height="80" />
    <rect x="470" y="270" width="60" height="130" />
    <rect x="530" y="230" width="80" height="170" />
    <rect x="610" y="290" width="50" height="110" />
    <rect x="660" y="250" width="90" height="150" />
  </g>
  
  <!-- Building windows -->
  <g fill="#ffeb3b" opacity="0.8">
    <rect x="60" y="270" width="10" height="10" />
    <rect x="60" y="290" width="10" height="10" />
    <rect x="60" y="310" width="10" height="10" />
    <rect x="60" y="330" width="10" height="10" />
    <rect x="60" y="350" width="10" height="10" />
    <rect x="80" y="270" width="10" height="10" />
    <rect x="80" y="290" width="10" height="10" />
    <rect x="80" y="310" width="10" height="10" />
    <rect x="80" y="330" width="10" height="10" />
    <rect x="80" y="350" width="10" height="10" />
    
    <rect x="140" y="210" width="10" height="10" />
    <rect x="140" y="230" width="10" height="10" />
    <rect x="140" y="250" width="10" height="10" />
    <rect x="140" y="270" width="10" height="10" />
    <rect x="140" y="290" width="10" height="10" />
    <rect x="140" y="310" width="10" height="10" />
    <rect x="140" y="330" width="10" height="10" />
    <rect x="140" y="350" width="10" height="10" />
    <rect x="160" y="210" width="10" height="10" />
    <rect x="160" y="230" width="10" height="10" />
    <rect x="160" y="250" width="10" height="10" />
    <rect x="160" y="270" width="10" height="10" />
    <rect x="160" y="290" width="10" height="10" />
    <rect x="160" y="310" width="10" height="10" />
    <rect x="160" y="330" width="10" height="10" />
    <rect x="160" y="350" width="10" height="10" />
    
    <rect x="540" y="240" width="10" height="10" />
    <rect x="540" y="260" width="10" height="10" />
    <rect x="540" y="280" width="10" height="10" />
    <rect x="540" y="300" width="10" height="10" />
    <rect x="540" y="320" width="10" height="10" />
    <rect x="540" y="340" width="10" height="10" />
    <rect x="540" y="360" width="10" height="10" />
    <rect x="560" y="240" width="10" height="10" />
    <rect x="560" y="260" width="10" height="10" />
    <rect x="560" y="280" width="10" height="10" />
    <rect x="560" y="300" width="10" height="10" />
    <rect x="560" y="320" width="10" height="10" />
    <rect x="560" y="340" width="10" height="10" />
    <rect x="560" y="360" width="10" height="10" />
    <rect x="580" y="240" width="10" height="10" />
    <rect x="580" y="260" width="10" height="10" />
    <rect x="580" y="280" width="10" height="10" />
    <rect x="580" y="300" width="10" height="10" />
    <rect x="580" y="320" width="10" height="10" />
    <rect x="580" y="340" width="10" height="10" />
    <rect x="580" y="360" width="10" height="10" />
    
    <rect x="680" y="260" width="10" height="10" />
    <rect x="680" y="280" width="10" height="10" />
    <rect x="680" y="300" width="10" height="10" />
    <rect x="680" y="320" width="10" height="10" />
    <rect x="680" y="340" width="10" height="10" />
    <rect x="680" y="360" width="10" height="10" />
    <rect x="700" y="260" width="10" height="10" />
    <rect x="700" y="280" width="10" height="10" />
    <rect x="700" y="300" width="10" height="10" />
    <rect x="700" y="320" width="10" height="10" />
    <rect x="700" y="340" width="10" height="10" />
    <rect x="700" y="360" width="10" height="10" />
    <rect x="720" y="260" width="10" height="10" />
    <rect x="720" y="280" width="10" height="10" />
    <rect x="720" y="300" width="10" height="10" />
    <rect x="720" y="320" width="10" height="10" />
    <rect x="720" y="340" width="10" height="10" />
    <rect x="720" y="360" width="10" height="10" />
  </g>
  
  <!-- Event space ground -->
  <rect x="0" y="400" width="800" height="200" fill="url(#groundGradient)" />
  
  <!-- Screen -->
  <rect x="250" y="200" width="300" height="180" fill="#dddddd" rx="2" ry="2" />
  <rect x="255" y="205" width="290" height="170" fill="#111111" rx="1" ry="1" />
  <rect x="260" y="210" width="280" height="160" fill="#ffffff" opacity="0.2" />
  
  <!-- Screen glow -->
  <ellipse cx="400" cy="290" rx="250" ry="150" fill="url(#screenGlow)" opacity="0.3" />
  
  <!-- Company logo on screen (placeholder) -->
  <circle cx="400" cy="290" r="50" fill="#ffffff" opacity="0.3" />
  <rect x="350" y="285" width="100" height="10" fill="#ffffff" opacity="0.3" />
  
  <!-- Event chairs (rows) -->
  <g fill="#222222">
    <!-- Row 1 -->
    <rect x="300" y="420" width="20" height="20" rx="2" ry="2" />
    <rect x="330" y="420" width="20" height="20" rx="2" ry="2" />
    <rect x="360" y="420" width="20" height="20" rx="2" ry="2" />
    <rect x="390" y="420" width="20" height="20" rx="2" ry="2" />
    <rect x="420" y="420" width="20" height="20" rx="2" ry="2" />
    <rect x="450" y="420" width="20" height="20" rx="2" ry="2" />
    <rect x="480" y="420" width="20" height="20" rx="2" ry="2" />
    
    <!-- Row 2 -->
    <rect x="300" y="450" width="20" height="20" rx="2" ry="2" />
    <rect x="330" y="450" width="20" height="20" rx="2" ry="2" />
    <rect x="360" y="450" width="20" height="20" rx="2" ry="2" />
    <rect x="390" y="450" width="20" height="20" rx="2" ry="2" />
    <rect x="420" y="450" width="20" height="20" rx="2" ry="2" />
    <rect x="450" y="450" width="20" height="20" rx="2" ry="2" />
    <rect x="480" y="450" width="20" height="20" rx="2" ry="2" />
    
    <!-- Row 3 -->
    <rect x="300" y="480" width="20" height="20" rx="2" ry="2" />
    <rect x="330" y="480" width="20" height="20" rx="2" ry="2" />
    <rect x="360" y="480" width="20" height="20" rx="2" ry="2" />
    <rect x="390" y="480" width="20" height="20" rx="2" ry="2" />
    <rect x="420" y="480" width="20" height="20" rx="2" ry="2" />
    <rect x="450" y="480" width="20" height="20" rx="2" ry="2" />
    <rect x="480" y="480" width="20" height="20" rx="2" ry="2" />
    
    <!-- Row 4 -->
    <rect x="300" y="510" width="20" height="20" rx="2" ry="2" />
    <rect x="330" y="510" width="20" height="20" rx="2" ry="2" />
    <rect x="360" y="510" width="20" height="20" rx="2" ry="2" />
    <rect x="390" y="510" width="20" height="20" rx="2" ry="2" />
    <rect x="420" y="510" width="20" height="20" rx="2" ry="2" />
    <rect x="450" y="510" width="20" height="20" rx="2" ry="2" />
    <rect x="480" y="510" width="20" height="20" rx="2" ry="2" />
  </g>
  
  <!-- People (simplified silhouettes) -->
  <g fill="#111111">
    <circle cx="310" cy="425" r="7" />
    <circle cx="340" cy="425" r="7" />
    <circle cx="370" cy="425" r="7" />
    <circle cx="400" cy="425" r="7" />
    <circle cx="430" cy="425" r="7" />
    <circle cx="460" cy="425" r="7" />
    <circle cx="490" cy="425" r="7" />
    
    <circle cx="310" cy="455" r="7" />
    <circle cx="340" cy="455" r="7" />
    <circle cx="370" cy="455" r="7" />
    <circle cx="400" cy="455" r="7" />
    <circle cx="430" cy="455" r="7" />
    <circle cx="460" cy="455" r="7" />
    <circle cx="490" cy="455" r="7" />
    
    <circle cx="310" cy="485" r="7" />
    <circle cx="340" cy="485" r="7" />
    <circle cx="370" cy="485" r="7" />
    <circle cx="400" cy="485" r="7" />
    <circle cx="430" cy="485" r="7" />
    <circle cx="460" cy="485" r="7" />
    <circle cx="490" cy="485" r="7" />
    
    <circle cx="310" cy="515" r="7" />
    <circle cx="340" cy="515" r="7" />
    <circle cx="370" cy="515" r="7" />
    <circle cx="400" cy="515" r="7" />
    <circle cx="430" cy="515" r="7" />
    <circle cx="460" cy="515" r="7" />
    <circle cx="490" cy="515" r="7" />
  </g>
  
  <!-- Refreshment table -->
  <rect x="600" y="450" width="120" height="30" fill="#333333" />
  <rect x="600" y="480" width="10" height="20" fill="#444444" />
  <rect x="710" y="480" width="10" height="20" fill="#444444" />
  
  <!-- Drinks and snacks -->
  <g>
    <rect x="610" y="440" width="10" height="10" fill="#f44336" />
    <rect x="630" y="440" width="10" height="10" fill="#2196f3" />
    <rect x="650" y="440" width="10" height="10" fill="#4caf50" />
    <rect x="670" y="440" width="10" height="10" fill="#ff9800" />
    <rect x="690" y="440" width="20" height="10" fill="#9c27b0" />
  </g>
  
  <!-- Projector -->
  <rect x="570" y="380" width="40" height="20" fill="#444444" rx="2" ry="2" />
  <polygon points="570,390 410,290 410,330" fill="white" opacity="0.05" />
</svg> 