<svg xmlns="http://www.w3.org/2000/svg" width="800" height="600" viewBox="0 0 800 600">
  <defs>
    <linearGradient id="skyGradient" x1="0%" y1="0%" x2="0%" y2="100%">
      <stop offset="0%" style="stop-color:#1a1a2e;stop-opacity:1" />
      <stop offset="100%" style="stop-color:#16213e;stop-opacity:1" />
    </linearGradient>
    <linearGradient id="lawnGradient" x1="0%" y1="0%" x2="0%" y2="100%">
      <stop offset="0%" style="stop-color:#1d4e1d;stop-opacity:1" />
      <stop offset="100%" style="stop-color:#0e2b0e;stop-opacity:1" />
    </linearGradient>
    <radialGradient id="screenGlow" cx="50%" cy="35%" r="50%" fx="50%" fy="35%">
      <stop offset="0%" style="stop-color:#ffffff;stop-opacity:0.7" />
      <stop offset="100%" style="stop-color:#ffffff;stop-opacity:0" />
    </radialGradient>
  </defs>
  
  <!-- Sky -->
  <rect width="800" height="600" fill="url(#skyGradient)" />
  
  <!-- Stars -->
  <g fill="white" opacity="0.8">
    <circle cx="100" cy="80" r="1" />
    <circle cx="200" cy="50" r="1.2" />
    <circle cx="300" cy="120" r="0.8" />
    <circle cx="450" cy="70" r="1" />
    <circle cx="550" cy="100" r="0.7" />
    <circle cx="650" cy="60" r="1.2" />
    <circle cx="720" cy="90" r="0.9" />
    <circle cx="150" cy="150" r="1" />
    <circle cx="250" cy="180" r="0.8" />
    <circle cx="350" cy="40" r="1.1" />
    <circle cx="500" cy="130" r="0.7" />
    <circle cx="600" cy="30" r="1" />
    <circle cx="700" cy="170" r="0.8" />
  </g>
  
  <!-- Moon -->
  <circle cx="650" cy="100" r="35" fill="#fffcea" />
  <circle cx="630" cy="90" r="10" fill="#ebdec2" opacity="0.5" />
  <circle cx="670" cy="110" r="8" fill="#ebdec2" opacity="0.5" />
  
  <!-- Lawn -->
  <rect x="0" y="350" width="800" height="250" fill="url(#lawnGradient)" />
  
  <!-- House silhouette -->
  <path d="M50,350 L50,200 L150,120 L250,200 L250,350 Z" fill="#111111" />
  <rect x="130" y="280" width="40" height="70" fill="#221b1b" />
  <rect x="80" y="250" width="30" height="30" fill="#221b1b" />
  <rect x="170" y="250" width="30" height="30" fill="#221b1b" />
  
  <!-- Fence -->
  <g fill="#221b1b">
    <rect x="300" y="350" width="10" height="40" />
    <rect x="340" y="350" width="10" height="40" />
    <rect x="380" y="350" width="10" height="40" />
    <rect x="420" y="350" width="10" height="40" />
    <rect x="460" y="350" width="10" height="40" />
    <rect x="500" y="350" width="10" height="40" />
    <rect x="540" y="350" width="10" height="40" />
    <rect x="580" y="350" width="10" height="40" />
    <rect x="620" y="350" width="10" height="40" />
    <rect x="660" y="350" width="10" height="40" />
    <rect x="700" y="350" width="10" height="40" />
    <rect x="740" y="350" width="10" height="40" />
    <rect x="300" y="360" width="450" height="8" />
    <rect x="300" y="380" width="450" height="8" />
  </g>
  
  <!-- Screen -->
  <rect x="250" y="200" width="300" height="180" fill="white" rx="2" ry="2" />
  <rect x="255" y="205" width="290" height="170" fill="#111111" rx="1" ry="1" />
  <rect x="260" y="210" width="280" height="160" fill="white" opacity="0.15" />
  
  <!-- Screen glow -->
  <ellipse cx="400" cy="290" rx="200" ry="120" fill="url(#screenGlow)" opacity="0.3" />
  
  <!-- Lounge chairs -->
  <g fill="#333333">
    <rect x="300" y="420" width="60" height="30" rx="5" ry="5" />
    <rect x="300" y="450" width="60" height="10" rx="2" ry="2" />
    <rect x="400" y="420" width="60" height="30" rx="5" ry="5" />
    <rect x="400" y="450" width="60" height="10" rx="2" ry="2" />
    <rect x="500" y="420" width="60" height="30" rx="5" ry="5" />
    <rect x="500" y="450" width="60" height="10" rx="2" ry="2" />
  </g>
  
  <!-- People silhouettes -->
  <g fill="black">
    <circle cx="330" cy="425" r="10" />
    <circle cx="430" cy="425" r="10" />
    <circle cx="530" cy="425" r="10" />
  </g>
  
  <!-- Snack table -->
  <rect x="620" y="430" width="40" height="30" fill="#555555" />
  <rect x="625" y="425" width="30" height="5" fill="#777777" />
  <circle cx="630" cy="422" r="3" fill="#ff9800" /> <!-- Popcorn -->
  <circle cx="640" cy="422" r="3" fill="#f44336" /> <!-- Drink -->
  <circle cx="650" cy="422" r="3" fill="#2196f3" /> <!-- Drink -->
  
  <!-- Projector -->
  <rect x="580" y="350" width="40" height="20" fill="#444444" rx="2" ry="2" />
  <polygon points="580,360 400,290 400,330" fill="white" opacity="0.05" />
</svg> 