<svg xmlns="http://www.w3.org/2000/svg" width="300" height="300" viewBox="0 0 300 300">
  <defs>
    <linearGradient id="backgroundGradient" x1="0%" y1="0%" x2="100%" y2="100%">
      <stop offset="0%" style="stop-color:#1a237e;stop-opacity:1" />
      <stop offset="100%" style="stop-color:#3949ab;stop-opacity:1" />
    </linearGradient>
  </defs>
  
  <!-- Background -->
  <rect width="300" height="300" fill="url(#backgroundGradient)" />
  
  <!-- Pattern overlay -->
  <g opacity="0.1">
    <rect x="0" y="0" width="300" height="300" fill="white" />
    <circle cx="50" cy="50" r="30" fill="#3949ab" />
    <circle cx="250" cy="50" r="20" fill="#3949ab" />
    <circle cx="50" cy="250" r="20" fill="#3949ab" />
    <circle cx="250" cy="250" r="30" fill="#3949ab" />
  </g>
  
  <!-- Person silhouette -->
  <g>
    <!-- Head -->
    <circle cx="150" cy="100" r="50" fill="#78909c" />
    
    <!-- Body -->
    <rect x="100" y="150" width="100" height="150" rx="10" ry="10" fill="#78909c" />
    
    <!-- Shirt/jacket -->
    <rect x="100" y="170" width="100" height="130" rx="5" ry="5" fill="#3949ab" />
    
    <!-- Collar/neckline -->
    <path d="M130,170 L150,190 L170,170 Z" fill="white" />
    
    <!-- Necklace -->
    <path d="M150,190 Q160,200 150,210 Q140,200 150,190 Z" fill="#ffd54f" />
    <circle cx="150" cy="210" r="3" fill="#ffca28" />
    
    <!-- Face features - extremely simplified -->
    <g fill="white">
      <ellipse cx="130" cy="90" rx="8" ry="5" /> <!-- Left eye -->
      <ellipse cx="170" cy="90" rx="8" ry="5" /> <!-- Right eye -->
      <path d="M130,120 Q150,135 170,120" fill="none" stroke="white" stroke-width="2" /> <!-- Smile -->
    </g>
    
    <!-- Hair -->
    <path d="M100,100 Q90,60 150,60 Q210,60 200,100 L200,110 Q180,150 120,150 Q100,130 100,100 Z" fill="#8d6e63" />
  </g>
  
  <!-- Film strip decorative element -->
  <g fill="white" opacity="0.2">
    <rect x="20" y="20" width="260" height="20" />
    <rect x="30" y="25" width="10" height="10" fill="#1a237e" />
    <rect x="50" y="25" width="10" height="10" fill="#1a237e" />
    <rect x="70" y="25" width="10" height="10" fill="#1a237e" />
    <rect x="90" y="25" width="10" height="10" fill="#1a237e" />
    <rect x="110" y="25" width="10" height="10" fill="#1a237e" />
    <rect x="130" y="25" width="10" height="10" fill="#1a237e" />
    <rect x="150" y="25" width="10" height="10" fill="#1a237e" />
    <rect x="170" y="25" width="10" height="10" fill="#1a237e" />
    <rect x="190" y="25" width="10" height="10" fill="#1a237e" />
    <rect x="210" y="25" width="10" height="10" fill="#1a237e" />
    <rect x="230" y="25" width="10" height="10" fill="#1a237e" />
    <rect x="250" y="25" width="10" height="10" fill="#1a237e" />
    
    <rect x="20" y="260" width="260" height="20" />
    <rect x="30" y="265" width="10" height="10" fill="#1a237e" />
    <rect x="50" y="265" width="10" height="10" fill="#1a237e" />
    <rect x="70" y="265" width="10" height="10" fill="#1a237e" />
    <rect x="90" y="265" width="10" height="10" fill="#1a237e" />
    <rect x="110" y="265" width="10" height="10" fill="#1a237e" />
    <rect x="130" y="265" width="10" height="10" fill="#1a237e" />
    <rect x="150" y="265" width="10" height="10" fill="#1a237e" />
    <rect x="170" y="265" width="10" height="10" fill="#1a237e" />
    <rect x="190" y="265" width="10" height="10" fill="#1a237e" />
    <rect x="210" y="265" width="10" height="10" fill="#1a237e" />
    <rect x="230" y="265" width="10" height="10" fill="#1a237e" />
    <rect x="250" y="265" width="10" height="10" fill="#1a237e" />
  </g>
</svg> 