<svg width="40" height="40" viewBox="0 0 40 40" fill="none" xmlns="http://www.w3.org/2000/svg">
  <path d="M20 5C13.9249 5 9 9.92487 9 16C9 19.5154 10.4074 22.7036 12.7187 24.9687C12.9947 25.2398 13.2856 25.493 13.5906 25.7281C13.6436 25.7701 13.7356 25.8472 13.8906 25.9844C13.4636 26.2774 12.9996 26.6521 12.5156 27.0781C12.0316 27.5041 11.4857 28.0214 10.9687 28.6094C10.7108 28.9034 10.4655 29.2151 10.2344 29.5312C9.99554 29.8583 9.77344 30.2004 9.5625 30.5625L8.25 32.75C7.93334 33.29 7.97031 33.9604 8.34375 34.4688C8.71719 34.9771 9.35313 35.1897 9.9375 35.0312L12.375 34.25C12.7687 34.131 13.1486 33.9704 13.5156 33.7812C13.8737 33.5969 14.2189 33.3886 14.5469 33.1562C15.2019 32.6924 15.8018 32.1583 16.3438 31.5938C16.6138 31.3118 16.8691 31.0191 17.1094 30.7344C17.3497 30.4497 17.5619 30.1737 17.7562 29.9344C18.0247 30.1714 18.2744 30.3453 18.5156 30.5C18.7567 30.6547 18.9809 30.7752 19.2031 30.875L28.6562 34.7812C29.2225 35 29.8463 34.8711 30.2812 34.4688C30.7162 34.0664 30.9015 33.4454 30.7812 32.8438L30.1875 29.5625C30.1255 29.1845 30.0156 28.8154 29.8594 28.4688C29.7032 28.1221 29.5032 27.7926 29.2812 27.5L26.5312 23.5781C26.3072 23.2671 26.069 22.9791 25.8125 22.7031C25.556 22.4271 25.2898 22.1821 25 21.9688C25.125 21.8688 25.2376 21.7784 25.3438 21.7031C25.5561 21.5527 25.7493 21.4365 25.9375 21.3281C28.3508 20.0831 30 17.2539 30 14C30 9.58172 26.4183 6 22 6C21.4641 6 20 6 20 6" stroke="white" stroke-width="3" stroke-linecap="round" stroke-linejoin="round"/>
  <path d="M18 24C17.7186 23.8396 17.4274 23.6518 17.125 23.4375C16.8226 23.2232 16.512 22.9898 16.1875 22.7188C15.864 22.4487 15.5252 22.1438 15.1719 21.8125C15.0439 21.6905 14.9105 21.5582 14.7812 21.4219C14.6519 21.2855 14.5258 21.1411 14.4063 21C14.2868 20.8589 14.1726 20.7278 14.0625 20.5938C13.9524 20.4597 13.851 20.3199 13.75 20.1875C13.6501 20.0551 13.5505 19.9376 13.4531 19.8125C13.3558 19.6874 13.2641 19.5365 13.1719 19.4062C12.9874 19.1458 12.8047 18.8854 12.6406 18.6094C12.4766 18.3333 12.3246 18.0469 12.1875 17.75C12.0504 17.4531 11.9292 17.1458 11.8281 16.8281C11.7271 16.5104 11.647 16.1875 11.5938 15.8438C11.4863 15.1563 11.4863 14.4271 11.5938 13.7188C11.647 13.3542 11.7271 13.0052 11.8281 12.6719C11.9292 12.3385 12.0504 12.0208 12.1875 11.7188C12.3246 11.4167 12.4766 11.1302 12.6406 10.8594C12.8047 10.5885 12.9874 10.3333 13.1719 10.0938C13.2641 9.95312 13.3558 9.80729 13.4531 9.6875C13.5505 9.56771 13.6501 9.44792 13.75 9.32813C13.851 9.20834 13.9524 9.09895 14.0625 8.98438C14.1726 8.8698 14.2868 8.75521 14.4063 8.64063C14.5258 8.5 14.652 8.35416 14.7813 8.21875C14.9105 8.08334 15.044 7.95834 15.1719 7.84375C15.5252 7.51042 15.864 7.21875 16.1875 6.95313C16.512 6.6875 16.8226 6.45833 17.125 6.25C17.4274 6.04167 17.7186 5.85937 18 5.70313" stroke="rgba(255, 255, 255, 0.8)" stroke-width="3" stroke-linecap="round" stroke-linejoin="round"/>
</svg> 